<svg xmlns="http://www.w3.org/2000/svg" viewBox="0 0 48 48">
  <path fill="#EA4335" d="M24 9.5c3.1 0 5.9 1.1 8.1 3.2l6-6C34.5 2.3 29.6 0 24 0 14.6 0 6.6 5.5 2.8 13.5l7.1 5.5C11.9 13.3 17.4 9.5 24 9.5z"></path>
  <path fill="#4285F4" d="M46.5 24.5c0-1.6-.1-3.1-.4-4.5H24v9h12.7c-.5 2.7-2.1 5-4.5 6.6l7.2 5.6c4.2-3.9 6.6-9.6 6.6-16.7z"></path>
  <path fill="#FBBC05" d="M9.9 28.5c-1-2.7-1-5.6 0-8.3l-7.1-5.5C.9 18.1 0 21 0 24s.9 5.9 2.8 9.3l7.1-4.8z"></path>
  <path fill="#34A853" d="M24 48c6.5 0 12-2.1 16-5.7l-7.2-5.6c-2 1.4-4.6 2.2-8.8 2.2-6.6 0-12.1-3.8-14.1-9.5l-7.1 4.8C6.6 42.5 14.6 48 24 48z"></path>
</svg>